<svg width="42" height="42" viewBox="0 0 42 42" fill="none" xmlns="http://www.w3.org/2000/svg">
<path d="M23.6495 18.3505L7.88118 34.1189M9.58291 22.6751L1.85931 20.8507C1.00956 20.6499 0.710694 19.595 1.32626 18.9772L7.46857 12.8349C7.88118 12.4223 8.44099 12.1859 9.02756 12.1814L15.9527 12.1212M24.6755 4.19687C29.8298 7.71186 34.2882 12.1703 37.8032 17.3245M19.3227 32.4171L21.1471 40.1407C21.3479 40.9905 22.4028 41.2893 23.0206 40.6738L29.1629 34.5315C29.5755 34.1189 29.8119 33.559 29.8164 32.9725L29.8766 26.0473M39.1257 13.7003L40.9278 5.02878C41.4185 2.6691 39.3309 0.581521 36.9713 1.07219L28.2998 2.87429C25.746 3.40511 23.4042 4.6697 21.562 6.51417L14.4472 13.6267C11.7329 16.341 9.96652 19.8604 9.40894 23.6587L9.38441 23.8215C9.03202 26.2458 9.84386 28.6925 11.5746 30.4254C13.3053 32.1562 15.7542 32.968 18.1786 32.6134L18.3414 32.5889C22.1396 32.0335 25.6591 30.2649 28.3734 27.5506L35.4859 20.4381C37.3303 18.5958 38.5949 16.254 39.1257 13.7003Z" stroke="#3D3D3D" stroke-width="2" stroke-linecap="round" stroke-linejoin="round"/>
</svg>
